<?xml version="1.0" standalone="no"?><!-- Generator: Gravit.io --><svg xmlns="http://www.w3.org/2000/svg" xmlns:xlink="http://www.w3.org/1999/xlink" style="isolation:isolate" viewBox="1044.5 751.509 25 23.982" width="25" height="23.982"><path d=" M 1055 751.509 C 1052.518 751.518 1050.509 753.527 1050.5 756.009 C 1050.5 756.809 1050.727 757.552 1051.094 758.197 C 1049.293 759.251 1047.883 760.747 1047.125 762.509 L 1047 762.509 C 1046.866 762.512 1046.738 762.46 1046.643 762.366 C 1046.549 762.272 1046.497 762.143 1046.5 762.009 C 1046.5 761.833 1046.59 761.693 1046.719 761.603 L 1045.562 759.978 C 1044.897 760.441 1044.5 761.199 1044.5 762.009 C 1044.5 763.239 1045.418 764.247 1046.594 764.447 C 1046.543 764.797 1046.5 765.146 1046.5 765.509 C 1046.5 768.001 1047.824 770.161 1049.75 771.759 C 1049.508 772.759 1049.629 773.825 1050.406 774.603 C 1051.6 775.787 1053.525 775.787 1054.719 774.603 L 1055.094 774.228 C 1055.875 774.372 1056.66 774.509 1057.5 774.509 C 1058.34 774.509 1059.125 774.372 1059.906 774.228 L 1060.281 774.603 C 1061.475 775.787 1063.4 775.787 1064.594 774.603 C 1065.355 773.841 1065.469 772.806 1065.25 771.821 C 1066.052 771.17 1066.738 770.388 1067.281 769.509 L 1069.5 769.509 L 1069.5 761.509 L 1067.219 761.509 C 1066.856 760.92 1066.426 760.374 1065.937 759.884 L 1066.5 756.79 L 1066.5 755.509 L 1065.5 755.509 C 1065.5 755.509 1063.098 755.549 1061.062 757.072 C 1060.527 756.918 1059.985 756.792 1059.437 756.696 C 1059.477 756.474 1059.5 756.243 1059.5 756.009 C 1059.5 753.536 1057.473 751.509 1055 751.509 Z  M 1055 753.509 C 1056.39 753.509 1057.5 754.619 1057.5 756.009 C 1057.5 756.181 1057.469 756.345 1057.437 756.509 C 1055.824 756.517 1054.301 756.829 1052.907 757.353 C 1052.641 756.955 1052.5 756.487 1052.5 756.009 C 1052.5 754.619 1053.61 753.509 1055 753.509 Z  M 1064.25 757.697 C 1064.266 757.693 1064.266 757.7 1064.281 757.697 L 1063.906 759.977 L 1063.813 760.509 L 1064.25 760.884 C 1064.918 761.462 1065.469 762.163 1065.875 762.947 L 1066.156 763.509 L 1067.5 763.509 L 1067.5 767.509 L 1066.156 767.509 L 1065.875 768.072 C 1065.387 769.036 1064.617 769.884 1063.625 770.602 L 1062.906 771.134 L 1063.344 771.947 C 1063.582 772.349 1063.539 772.845 1063.187 773.197 C 1062.995 773.397 1062.73 773.51 1062.453 773.51 C 1062.176 773.51 1061.911 773.397 1061.719 773.197 L 1061 772.477 L 1060.594 772.103 L 1060.062 772.228 C 1059.25 772.415 1058.387 772.509 1057.5 772.509 C 1056.638 772.512 1055.778 772.418 1054.937 772.228 L 1054.407 772.103 L 1054 772.478 L 1053.281 773.196 C 1053.089 773.396 1052.824 773.51 1052.547 773.51 C 1052.269 773.51 1052.004 773.396 1051.812 773.196 C 1051.473 772.868 1051.408 772.348 1051.656 771.946 L 1052.094 771.134 L 1051.375 770.603 C 1049.566 769.289 1048.5 767.497 1048.5 765.509 C 1048.5 761.767 1052.41 758.509 1057.5 758.509 C 1058.73 758.509 1059.902 758.693 1060.969 759.04 L 1061.5 759.228 L 1061.938 758.853 C 1062.652 758.216 1063.535 757.873 1064.25 757.697 Z  M 1063.5 763.509 C 1062.95 763.509 1062.5 763.959 1062.5 764.509 C 1062.5 765.059 1062.95 765.509 1063.5 765.509 C 1064.05 765.509 1064.5 765.059 1064.5 764.509 C 1064.5 763.959 1064.05 763.509 1063.5 763.509 Z " fill="rgb(255,255,255)"/></svg>